<?xml version="1.0" encoding="UTF-8"?>
<!--
  Paithon Book, figura animata: lo scan in fila e lo scan a raddoppio
  Generata da animazioni/svg/scan-parallelo.py: non modificare a mano.
  Palette-locked, fondo trasparente, animazione in CSS puro (nessuno script).
  Lo stato di riposo è quello finale: chi non anima (stampa, PDF,
  prefers-reduced-motion) vede la figura conclusa.
-->
<svg xmlns="http://www.w3.org/2000/svg" viewBox="0 0 664 588"
     role="img" aria-label="Due schemi affiancati della stessa ricorrenza su 12 passi, con lo stesso asse verticale dei turni. A sinistra, in fila: una scala di frecce scende in diagonale, una posizione per turno, e ne servono 11. A destra, a raddoppio: 4 righe di frecce in cui il salto raddoppia (1, 2, 4, 8), e già dopo 4 turni tutte le posizioni hanno il risultato definitivo; le righe sotto restano vuote.">
  <style>
    svg  { --d: 9.6s; }
    .ax  { stroke:#C5BEAA; stroke-width:2; fill:none; }
    .axc { stroke:#E2DCC9; stroke-width:1.5; }
    .lbl { font-family:Inter, system-ui, sans-serif; font-size:15px; fill:#1A1A1A; }
    .lbs { font-family:Inter, system-ui, sans-serif; font-size:13px; fill:#5A524A; }
    .ttl { font-family:Fraunces, Georgia, serif; font-size:16px; font-style:italic; fill:#1A1A1A; }
    .rail   { stroke:#E2DCC9; stroke-width:1; fill:none; }
    .band   { fill:#E2DCC9; fill-opacity:.5;
              animation:scorre var(--d) infinite; }
    .n      { fill:#F8F5EE; stroke:#2D5A5C; stroke-width:2; }
    .d      { fill:#B5532C; stroke:#B5532C; }
    .c      { stroke:#5A524A; stroke-width:1.3; fill:none; }
    .fronte { fill:#B5532C; fill-opacity:.35; }
    .cnt    { font-family:Inter, system-ui, sans-serif; font-size:17px; font-weight:700;
              fill:#B5532C; }
    .k1{animation:ap1 var(--d) infinite}
    .k2{animation:ap2 var(--d) infinite}
    .k3{animation:ap3 var(--d) infinite}
    .k4{animation:ap4 var(--d) infinite}
    .k5{animation:ap5 var(--d) infinite}
    .k6{animation:ap6 var(--d) infinite}
    .k7{animation:ap7 var(--d) infinite}
    .k8{animation:ap8 var(--d) infinite}
    .k9{animation:ap9 var(--d) infinite}
    .k10{animation:ap10 var(--d) infinite}
    .k11{animation:ap11 var(--d) infinite}
        @keyframes scorre{0.00%{transform:translateY(-352px)}6.00%{transform:translateY(-352px)}8.33%{transform:translateY(-320px)}14.33%{transform:translateY(-320px)}16.67%{transform:translateY(-288px)}22.67%{transform:translateY(-288px)}25.00%{transform:translateY(-256px)}31.00%{transform:translateY(-256px)}33.33%{transform:translateY(-224px)}39.33%{transform:translateY(-224px)}41.67%{transform:translateY(-192px)}47.67%{transform:translateY(-192px)}50.00%{transform:translateY(-160px)}56.00%{transform:translateY(-160px)}58.33%{transform:translateY(-128px)}64.33%{transform:translateY(-128px)}66.67%{transform:translateY(-96px)}72.67%{transform:translateY(-96px)}75.00%{transform:translateY(-64px)}81.00%{transform:translateY(-64px)}83.33%{transform:translateY(-32px)}89.33%{transform:translateY(-32px)}91.67%{transform:translateY(0px)}97.67%{transform:translateY(0px)}100.00%{transform:translateY(0px)}}
    @keyframes ap1{0.00%{opacity:0}7.93%{opacity:0}8.33%{opacity:1}100.00%{opacity:1}}
    @keyframes ap2{0.00%{opacity:0}16.27%{opacity:0}16.67%{opacity:1}100.00%{opacity:1}}
    @keyframes ap3{0.00%{opacity:0}24.60%{opacity:0}25.00%{opacity:1}100.00%{opacity:1}}
    @keyframes ap4{0.00%{opacity:0}32.93%{opacity:0}33.33%{opacity:1}100.00%{opacity:1}}
    @keyframes ap5{0.00%{opacity:0}41.27%{opacity:0}41.67%{opacity:1}100.00%{opacity:1}}
    @keyframes ap6{0.00%{opacity:0}49.60%{opacity:0}50.00%{opacity:1}100.00%{opacity:1}}
    @keyframes ap7{0.00%{opacity:0}57.93%{opacity:0}58.33%{opacity:1}100.00%{opacity:1}}
    @keyframes ap8{0.00%{opacity:0}66.27%{opacity:0}66.67%{opacity:1}100.00%{opacity:1}}
    @keyframes ap9{0.00%{opacity:0}74.60%{opacity:0}75.00%{opacity:1}100.00%{opacity:1}}
    @keyframes ap10{0.00%{opacity:0}82.93%{opacity:0}83.33%{opacity:1}100.00%{opacity:1}}
    @keyframes ap11{0.00%{opacity:0}91.27%{opacity:0}91.67%{opacity:1}100.00%{opacity:1}}
    @media (prefers-reduced-motion:reduce) { .band, .c, .n, .fronte, .cnt, .lbs { animation:none !important; } }
  </style>
  <rect class="band" x="14" y="440" width="568" height="24" rx="5"/><path class="rail" d="M64 100V452M84 100V452M104 100V452M124 100V452M144 100V452M164 100V452M184 100V452M204 100V452M224 100V452M244 100V452M264 100V452M284 100V452M344 100V228M364 100V228M384 100V228M404 100V228M424 100V228M444 100V228M464 100V228M484 100V228M504 100V228M524 100V228M544 100V228M564 100V228"/><g class="n"><circle cx="84" cy="100" r="6"/><circle cx="104" cy="100" r="6"/><circle cx="124" cy="100" r="6"/><circle cx="144" cy="100" r="6"/><circle cx="164" cy="100" r="6"/><circle cx="184" cy="100" r="6"/><circle cx="204" cy="100" r="6"/><circle cx="224" cy="100" r="6"/><circle cx="244" cy="100" r="6"/><circle cx="264" cy="100" r="6"/><circle cx="284" cy="100" r="6"/></g><g class="n d"><circle cx="64" cy="100" r="6"/></g><rect class="fronte" x="61" y="111" width="11" height="3" rx="1.5"/><line class="c k1" x1="64" y1="106" x2="84" y2="126"/><circle class="n d k1" cx="84" cy="132" r="6"/><rect class="fronte k1" x="61" y="143" width="26" height="3" rx="1.5"/><line class="c k2" x1="84" y1="138" x2="104" y2="158"/><circle class="n d k2" cx="104" cy="164" r="6"/><rect class="fronte k2" x="61" y="175" width="46" height="3" rx="1.5"/><line class="c k3" x1="104" y1="170" x2="124" y2="190"/><circle class="n d k3" cx="124" cy="196" r="6"/><rect class="fronte k3" x="61" y="207" width="66" height="3" rx="1.5"/><line class="c k4" x1="124" y1="202" x2="144" y2="222"/><circle class="n d k4" cx="144" cy="228" r="6"/><rect class="fronte k4" x="61" y="239" width="86" height="3" rx="1.5"/><line class="c k5" x1="144" y1="234" x2="164" y2="254"/><circle class="n d k5" cx="164" cy="260" r="6"/><rect class="fronte k5" x="61" y="271" width="106" height="3" rx="1.5"/><line class="c k6" x1="164" y1="266" x2="184" y2="286"/><circle class="n d k6" cx="184" cy="292" r="6"/><rect class="fronte k6" x="61" y="303" width="126" height="3" rx="1.5"/><line class="c k7" x1="184" y1="298" x2="204" y2="318"/><circle class="n d k7" cx="204" cy="324" r="6"/><rect class="fronte k7" x="61" y="335" width="146" height="3" rx="1.5"/><line class="c k8" x1="204" y1="330" x2="224" y2="350"/><circle class="n d k8" cx="224" cy="356" r="6"/><rect class="fronte k8" x="61" y="367" width="166" height="3" rx="1.5"/><line class="c k9" x1="224" y1="362" x2="244" y2="382"/><circle class="n d k9" cx="244" cy="388" r="6"/><rect class="fronte k9" x="61" y="399" width="186" height="3" rx="1.5"/><line class="c k10" x1="244" y1="394" x2="264" y2="414"/><circle class="n d k10" cx="264" cy="420" r="6"/><rect class="fronte k10" x="61" y="431" width="206" height="3" rx="1.5"/><line class="c k11" x1="264" y1="426" x2="284" y2="446"/><circle class="n d k11" cx="284" cy="452" r="6"/><rect class="fronte k11" x="61" y="463" width="226" height="3" rx="1.5"/><g class="n"><circle cx="364" cy="100" r="6"/><circle cx="384" cy="100" r="6"/><circle cx="404" cy="100" r="6"/><circle cx="424" cy="100" r="6"/><circle cx="444" cy="100" r="6"/><circle cx="464" cy="100" r="6"/><circle cx="484" cy="100" r="6"/><circle cx="504" cy="100" r="6"/><circle cx="524" cy="100" r="6"/><circle cx="544" cy="100" r="6"/><circle cx="564" cy="100" r="6"/></g><g class="n d"><circle cx="344" cy="100" r="6"/></g><rect class="fronte" x="341" y="111" width="11" height="3" rx="1.5"/><path class="c k1" d="M344 106L364 126M364 106L384 126M384 106L404 126M404 106L424 126M424 106L444 126M444 106L464 126M464 106L484 126M484 106L504 126M504 106L524 126M524 106L544 126M544 106L564 126"/><g class="n k1"><circle cx="384" cy="132" r="6"/><circle cx="404" cy="132" r="6"/><circle cx="424" cy="132" r="6"/><circle cx="444" cy="132" r="6"/><circle cx="464" cy="132" r="6"/><circle cx="484" cy="132" r="6"/><circle cx="504" cy="132" r="6"/><circle cx="524" cy="132" r="6"/><circle cx="544" cy="132" r="6"/><circle cx="564" cy="132" r="6"/></g><g class="n d k1"><circle cx="344" cy="132" r="6"/><circle cx="364" cy="132" r="6"/></g><rect class="fronte k1" x="341" y="143" width="26" height="3" rx="1.5"/><text class="lbs k1" x="582" y="137">salto 1</text><path class="c k2" d="M344 138L384 158M364 138L404 158M384 138L424 158M404 138L444 158M424 138L464 158M444 138L484 158M464 138L504 158M484 138L524 158M504 138L544 158M524 138L564 158"/><g class="n k2"><circle cx="424" cy="164" r="6"/><circle cx="444" cy="164" r="6"/><circle cx="464" cy="164" r="6"/><circle cx="484" cy="164" r="6"/><circle cx="504" cy="164" r="6"/><circle cx="524" cy="164" r="6"/><circle cx="544" cy="164" r="6"/><circle cx="564" cy="164" r="6"/></g><g class="n d k2"><circle cx="344" cy="164" r="6"/><circle cx="364" cy="164" r="6"/><circle cx="384" cy="164" r="6"/><circle cx="404" cy="164" r="6"/></g><rect class="fronte k2" x="341" y="175" width="66" height="3" rx="1.5"/><text class="lbs k2" x="582" y="169">salto 2</text><path class="c k3" d="M344 170L424 190M364 170L444 190M384 170L464 190M404 170L484 190M424 170L504 190M444 170L524 190M464 170L544 190M484 170L564 190"/><g class="n k3"><circle cx="504" cy="196" r="6"/><circle cx="524" cy="196" r="6"/><circle cx="544" cy="196" r="6"/><circle cx="564" cy="196" r="6"/></g><g class="n d k3"><circle cx="344" cy="196" r="6"/><circle cx="364" cy="196" r="6"/><circle cx="384" cy="196" r="6"/><circle cx="404" cy="196" r="6"/><circle cx="424" cy="196" r="6"/><circle cx="444" cy="196" r="6"/><circle cx="464" cy="196" r="6"/><circle cx="484" cy="196" r="6"/></g><rect class="fronte k3" x="341" y="207" width="146" height="3" rx="1.5"/><text class="lbs k3" x="582" y="201">salto 4</text><path class="c k4" d="M344 202L504 222M364 202L524 222M384 202L544 222M404 202L564 222"/><g class="n k4"></g><g class="n d k4"><circle cx="344" cy="228" r="6"/><circle cx="364" cy="228" r="6"/><circle cx="384" cy="228" r="6"/><circle cx="404" cy="228" r="6"/><circle cx="424" cy="228" r="6"/><circle cx="444" cy="228" r="6"/><circle cx="464" cy="228" r="6"/><circle cx="484" cy="228" r="6"/><circle cx="504" cy="228" r="6"/><circle cx="524" cy="228" r="6"/><circle cx="544" cy="228" r="6"/><circle cx="564" cy="228" r="6"/></g><rect class="fronte k4" x="341" y="239" width="226" height="3" rx="1.5"/><text class="lbs k4" x="582" y="233">salto 8</text><text class="lbs" x="46" y="78" text-anchor="end">turno</text><text class="lbs" x="46" y="105" text-anchor="end">0</text><text class="lbs" x="46" y="137" text-anchor="end">1</text><text class="lbs" x="46" y="169" text-anchor="end">2</text><text class="lbs" x="46" y="201" text-anchor="end">3</text><text class="lbs" x="46" y="233" text-anchor="end">4</text><text class="lbs" x="46" y="265" text-anchor="end">5</text><text class="lbs" x="46" y="297" text-anchor="end">6</text><text class="lbs" x="46" y="329" text-anchor="end">7</text><text class="lbs" x="46" y="361" text-anchor="end">8</text><text class="lbs" x="46" y="393" text-anchor="end">9</text><text class="lbs" x="46" y="425" text-anchor="end">10</text><text class="lbs" x="46" y="457" text-anchor="end">11</text><text class="ttl" x="174" y="32" text-anchor="middle">in fila</text><text class="cnt k11" x="174" y="56" text-anchor="middle">11 turni</text><text class="lbs" x="174" y="78" text-anchor="middle">una composizione per turno</text><text class="ttl" x="454" y="32" text-anchor="middle">a raddoppio</text><text class="cnt k4" x="454" y="56" text-anchor="middle">4 turni</text><text class="lbs" x="454" y="78" text-anchor="middle">tante composizioni per turno</text><text class="lbs k4" x="344" y="290">qui è già tutto calcolato:</text><text class="lbs k4" x="344" y="310">i turni da 5 a 11 non servono</text><g class="n"><circle cx="64" cy="491" r="6"/></g><text class="lbs" x="78" y="496">risultato parziale</text><g class="n d"><circle cx="232" cy="491" r="6"/></g><text class="lbs" x="246" y="496">risultato definitivo</text><text class="lbl" x="64" y="528">(a₁, b₁) • (a₂, b₂) = (a₂ a₁, a₂ b₁ + b₂)</text><text class="lbs" x="64" y="552">l'operazione è associativa, quindi i passi si possono raggruppare a piacere:</text><text class="lbs" x="64" y="572">dentro un turno le composizioni non dipendono l'una dall'altra e si fanno tutte insieme.</text>
</svg>
